<?xml version="1.0" standalone="no"?>
<!DOCTYPE svg PUBLIC "-//W3C//DTD SVG 20010904//EN"
 "http://www.w3.org/TR/2001/REC-SVG-20010904/DTD/svg10.dtd">
<svg version="1.0" xmlns="http://www.w3.org/2000/svg"
 width="256.000000pt" height="256.000000pt" viewBox="0 0 256.000000 256.000000"
 preserveAspectRatio="xMidYMid meet">
<metadata>
Created by potrace 1.14, written by Peter Selinger 2001-2017
</metadata>
<g transform="translate(0.000000,256.000000) scale(0.100000,-0.100000)"
fill="#000000" stroke="none">
<path d="M597 1614 c-1 -1 -33 -5 -72 -8 -67 -6 -101 -10 -155 -22 -24 -4 -26
-8 -25 -62 0 -60 9 -75 38 -66 9 3 78 6 153 6 151 1 168 -5 166 -62 0 -18 -3
-34 -5 -37 -3 -2 -70 -6 -149 -7 -164 -3 -216 -19 -261 -78 -44 -57 -64 -193
-38 -248 49 -104 249 -105 380 -1 l37 29 -1 -36 c-1 -20 0 -42 2 -47 4 -11
136 -15 146 -5 3 3 17 73 32 155 14 83 28 161 31 175 17 89 20 137 15 205 -2
29 -43 73 -82 88 -19 8 -59 15 -89 16 -30 1 -70 4 -88 5 -18 1 -34 1 -35 0z
m76 -381 c2 -5 -1 -26 -7 -47 -9 -32 -20 -44 -56 -62 -83 -42 -171 -40 -182 4
-7 24 16 92 34 103 16 11 205 12 211 2z"/>
<path d="M1297 1608 c-85 -10 -165 -47 -208 -95 -30 -35 -67 -104 -74 -141 -1
-9 -8 -36 -14 -58 -18 -65 -20 -174 -5 -225 22 -75 73 -113 178 -135 29 -6
162 -5 216 1 25 3 71 13 103 22 l57 16 0 57 0 57 -160 -1 c-147 -1 -161 1
-179 19 -11 11 -21 36 -23 55 l-3 34 145 1 c122 2 152 5 190 22 57 26 84 56
104 116 51 151 -23 249 -194 256 -30 2 -57 4 -60 5 -3 1 -36 -1 -73 -6z m142
-151 c16 -13 10 -92 -8 -110 -7 -7 -56 -13 -122 -15 l-111 -4 7 24 c12 37 36
86 48 97 35 28 154 33 186 8z"/>
<path d="M1955 1608 c-90 -11 -124 -22 -157 -53 -46 -42 -61 -83 -62 -162 -1
-107 20 -126 211 -179 118 -32 143 -46 136 -73 -11 -42 -28 -46 -212 -48
l-175 -1 -13 -49 c-7 -26 -13 -53 -13 -59 0 -19 56 -26 220 -30 164 -4 229 6
292 43 45 26 81 101 86 179 4 61 3 65 -30 98 -25 25 -55 40 -109 56 -41 12
-92 28 -114 37 -22 8 -41 14 -42 14 -48 -17 -78 55 -33 79 9 5 86 9 171 9 85
0 159 0 166 0 11 1 49 109 41 116 -8 8 -70 16 -163 21 -55 3 -107 6 -115 7 -8
2 -46 -1 -85 -5z"/>
</g>
</svg>
